<svg width="124" height="34" viewBox="0 0 124 34" fill="none" xmlns="http://www.w3.org/2000/svg">
  <!-- Discord Logo Simplified -->
  <g fill="#5865F2">
    <!-- Discord mascot face -->
    <path d="M20.6644 20.6644C20.6644 19.9304 21.2484 19.3464 21.9824 19.3464C22.7164 19.3464 23.3004 19.9304 23.3004 20.6644C23.3004 21.3984 22.7164 21.9824 21.9824 21.9824C21.2484 21.9824 20.6644 21.3984 20.6644 20.6644Z"/>
    <path d="M14.0004 20.6644C14.0004 19.9304 14.5844 19.3464 15.3184 19.3464C16.0524 19.3464 16.6364 19.9304 16.6364 20.6644C16.6364 21.3984 16.0524 21.9824 15.3184 21.9824C14.5844 21.9824 14.0004 21.3984 14.0004 20.6644Z"/>
    <!-- Discord body -->
    <path d="M18.9274 6.11741C15.3184 4.2994 11.4094 4.2994 7.80041 6.11741C6.11741 6.99741 4.73541 8.37941 3.85541 10.0624C2.97541 11.7454 2.67041 13.6284 3.00041 15.4464C3.33041 17.2644 4.26541 18.9124 5.65541 20.1364C7.04541 21.3604 8.80541 22.0944 10.6234 22.2244C12.4414 22.3544 14.2594 21.8704 15.7834 20.8444C17.3074 19.8184 18.4664 18.3124 19.0854 16.5484C19.7044 14.7844 19.7524 12.8464 19.2204 11.0524C18.6884 9.25841 17.6094 7.69541 16.1374 6.59741C14.6654 5.49941 12.8764 4.92041 11.0524 4.95041C9.22841 4.98041 7.46041 5.61741 6.02541 6.76541C4.59041 7.91341 3.56541 9.51341 3.10541 11.3274C2.64541 13.1414 2.77541 15.0574 3.47541 16.7974C4.17541 18.5374 5.40541 20.0134 7.00541 20.9974C8.60541 21.9814 10.4874 22.4174 12.3574 22.2424C14.2274 22.0674 15.9874 21.2924 17.3574 20.0324C18.7274 18.7724 19.6374 17.0924 19.9474 15.2724C20.2574 13.4524 19.9474 11.5924 19.0674 9.96741C18.1874 8.34241 16.7874 7.03741 15.0674 6.23741Z"/>
  </g>
  <!-- Discord text -->
  <text x="40" y="22" font-family="Arial, sans-serif" font-size="16" font-weight="bold" fill="#5865F2">Discord</text>
</svg>