<svg width="600" height="300" viewBox="0 0 600 300" fill="none" xmlns="http://www.w3.org/2000/svg">
  <!-- Background -->
  <rect width="600" height="300" fill="#36393f" rx="16"/>
  
  <!-- Main Video Call Interface -->
  <rect x="50" y="30" width="500" height="240" fill="#2f3136" rx="12"/>
  
  <!-- Video Grid -->
  <!-- Main Speaker -->
  <rect x="70" y="50" width="300" height="180" fill="#40444b" rx="8"/>
  <circle cx="220" cy="140" r="40" fill="#5865f2"/>
  <rect x="180" y="190" width="80" height="12" fill="#dcddde" rx="2"/>
  
  <!-- Speaking Indicator -->
  <rect x="70" y="50" width="300" height="180" fill="none" rx="8" stroke="#57f287" stroke-width="3"/>
  
  <!-- Participant Videos -->
  <rect x="390" y="50" width="140" height="80" fill="#40444b" rx="6"/>
  <circle cx="460" cy="90" r="20" fill="#57f287"/>
  <rect x="430" y="115" width="60" height="8" fill="#dcddde" rx="2"/>
  
  <rect x="390" y="140" width="140" height="80" fill="#40444b" rx="6"/>
  <circle cx="460" cy="180" r="20" fill="#fee75c"/>
  <rect x="430" y="205" width="60" height="8" fill="#dcddde" rx="2"/>
  
  <!-- Control Bar -->
  <rect x="70" y="240" width="460" height="40" fill="#1e2124" rx="8"/>
  
  <!-- Control Buttons -->
  <circle cx="120" cy="260" r="12" fill="#ed4245"/>
  <rect x="115" y="257" width="10" height="6" fill="#ffffff" rx="1"/>
  
  <circle cx="160" cy="260" r="12" fill="#72767d"/>
  <circle cx="160" cy="260" r="6" fill="#ffffff"/>
  
  <circle cx="200" cy="260" r="12" fill="#57f287"/>
  <rect x="195" y="257" width="10" height="6" fill="#ffffff" rx="1"/>
  
  <circle cx="240" cy="260" r="12" fill="#5865f2"/>
  <rect x="235" y="257" width="10" height="6" fill="#ffffff" rx="1"/>
  
  <!-- Screen Share Button -->
  <rect x="280" y="250" width="60" height="20" fill="#5865f2" rx="10"/>
  <rect x="290" y="257" width="40" height="6" fill="#ffffff" rx="2"/>
  
  <!-- Participants Count -->
  <rect x="400" y="250" width="80" height="20" fill="#40444b" rx="10"/>
  <rect x="410" y="257" width="60" height="6" fill="#dcddde" rx="2"/>
  
  <!-- Chat Panel -->
  <rect x="20" y="50" width="40" height="180" fill="#2f3136" rx="6"/>
  
  <!-- Chat Messages -->
  <rect x="25" y="60" width="30" height="8" fill="#40444b" rx="2"/>
  <rect x="25" y="75" width="25" height="6" fill="#72767d" rx="2"/>
  <rect x="25" y="90" width="30" height="8" fill="#40444b" rx="2"/>
  <rect x="25" y="105" width="20" height="6" fill="#72767d" rx="2"/>
  
  <!-- Network Quality Indicators -->
  <rect x="540" y="50" width="4" height="8" fill="#57f287" rx="1"/>
  <rect x="546" y="45" width="4" height="13" fill="#57f287" rx="1"/>
  <rect x="552" y="40" width="4" height="18" fill="#57f287" rx="1"/>
  <rect x="558" y="35" width="4" height="23" fill="#57f287" rx="1"/>
  
  <!-- Low Latency Indicator -->
  <circle cx="570" cy="80" r="8" fill="#57f287"/>
  <rect x="566" y="77" width="8" height="6" fill="#ffffff" rx="1"/>
  
  <!-- HD Quality Badge -->
  <rect x="540" y="100" width="30" height="15" fill="#5865f2" rx="4"/>
  <rect x="545" y="105" width="20" height="5" fill="#ffffff" rx="1"/>
  
  <!-- Noise Suppression -->
  <circle cx="570" cy="130" r="8" fill="#fee75c"/>
  <path d="M 565 130 L 575 130 M 570 125 L 570 135" stroke="#ffffff" stroke-width="2"/>
  
  <!-- Background Effects -->
  <rect x="10" y="10" width="20" height="20" fill="#5865f2" opacity="0.1" rx="4"/>
  <rect x="570" y="10" width="20" height="20" fill="#57f287" opacity="0.1" rx="4"/>
  <rect x="10" y="270" width="20" height="20" fill="#fee75c" opacity="0.1" rx="4"/>
  <rect x="570" y="270" width="20" height="20" fill="#eb459e" opacity="0.1" rx="4"/>
  
  <!-- Connection Status -->
  <circle cx="30" cy="30" r="3" fill="#57f287"/>
  <circle cx="570" cy="30" r="3" fill="#57f287"/>
</svg>