<svg width="600" height="400" viewBox="0 0 600 400" fill="none" xmlns="http://www.w3.org/2000/svg">
  <!-- Background -->
  <rect width="600" height="400" fill="#36393f" rx="12"/>
  
  <!-- Discord Interface Mockup -->
  <!-- Sidebar -->
  <rect x="20" y="20" width="80" height="360" fill="#2f3136" rx="8"/>
  
  <!-- Server Icons -->
  <circle cx="60" cy="50" r="20" fill="#5865f2"/>
  <circle cx="60" cy="90" r="20" fill="#57f287"/>
  <circle cx="60" cy="130" r="20" fill="#fee75c"/>
  <circle cx="60" cy="170" r="20" fill="#eb459e"/>
  
  <!-- Main Content Area -->
  <rect x="120" y="20" width="460" height="360" fill="#40444b" rx="8"/>
  
  <!-- Channel List -->
  <rect x="140" y="40" width="180" height="320" fill="#2f3136" rx="4"/>
  
  <!-- Channel Items -->
  <rect x="150" y="60" width="160" height="20" fill="#36393f" rx="2"/>
  <rect x="150" y="90" width="140" height="16" fill="#4f545c" rx="2"/>
  <rect x="150" y="115" width="120" height="16" fill="#4f545c" rx="2"/>
  <rect x="150" y="140" width="150" height="16" fill="#4f545c" rx="2"/>
  
  <!-- Chat Area -->
  <rect x="340" y="40" width="220" height="280" fill="#36393f" rx="4"/>
  
  <!-- Messages -->
  <circle cx="360" cy="70" r="15" fill="#5865f2"/>
  <rect x="385" y="60" width="100" height="12" fill="#dcddde" rx="2"/>
  <rect x="385" y="78" width="160" height="8" fill="#72767d" rx="2"/>
  
  <circle cx="360" cy="120" r="15" fill="#57f287"/>
  <rect x="385" y="110" width="80" height="12" fill="#dcddde" rx="2"/>
  <rect x="385" y="128" width="140" height="8" fill="#72767d" rx="2"/>
  
  <circle cx="360" cy="170" r="15" fill="#fee75c"/>
  <rect x="385" y="160" width="120" height="12" fill="#dcddde" rx="2"/>
  <rect x="385" y="178" width="100" height="8" fill="#72767d" rx="2"/>
  
  <!-- Message Input -->
  <rect x="350" y="340" width="200" height="30" fill="#40444b" rx="15"/>
  <rect x="360" y="350" width="80" height="10" fill="#72767d" rx="2"/>
  
  <!-- Voice Channel Indicator -->
  <rect x="140" y="300" width="180" height="60" fill="#1e2124" rx="4"/>
  <circle cx="160" cy="320" r="8" fill="#57f287"/>
  <rect x="175" y="315" width="60" height="8" fill="#dcddde" rx="2"/>
  <rect x="175" y="330" width="40" height="6" fill="#72767d" rx="2"/>
  
  <!-- Decorative Elements -->
  <circle cx="500" cy="100" r="3" fill="#5865f2" opacity="0.6"/>
  <circle cx="520" cy="120" r="2" fill="#57f287" opacity="0.6"/>
  <circle cx="480" cy="140" r="2" fill="#fee75c" opacity="0.6"/>
  
  <!-- Online Status Indicators -->
  <circle cx="75" cy="65" r="6" fill="#57f287"/>
  <circle cx="75" cy="105" r="6" fill="#faa61a"/>
  <circle cx="75" cy="145" r="6" fill="#ed4245"/>
</svg>